# xmcd
#
# Track frame offsets: 
#        150
#        13932
#        24747
#        42887
#        55845
#        71287
#        91629
#        122570
#        140312
#        163197
#        201182
#        228355
#        238337
#        274197
#        297482
#
# Disc length: 4354 seconds
#
# Revision: 3
# Processed by: cddbd v1.5.2PL0 Copyright (c) Steve Scherf et al.
# Submitted via: ExactAudioCopy v0.99pb3
#
DISCID=d511000f
DTITLE=Original Soundtrack - Titanic
DYEAR=1997
DGENRE=Soundtrack
TTITLE0=Never an Absolution
TTITLE1=Distant Memories
TTITLE2=Southampton
TTITLE3=Rose
TTITLE4=Leaving port
TTITLE5="Take Her to Sea, Mr. Murdoch"
TTITLE6="Hard to Starboard"
TTITLE7=Unable to Stay
TTITLE8=The Sinking
TTITLE9=Death Of Titanic
TTITLE10=a Promise Kept
TTITLE11=a Life So Changed
TTITLE12=an Ocean of Memories
TTITLE13=My Heart Will Go on(Love Theme from 'Titanic') Performed by C
TTITLE13=eline Dion
TTITLE14=Hymn to The Sea
EXTD=
EXTT0=
EXTT1=
EXTT2=
EXTT3=
EXTT4=
EXTT5=
EXTT6=
EXTT7=
EXTT8=
EXTT9=
EXTT10=
EXTT11=
EXTT12=
EXTT13=
EXTT14=
PLAYORDER=
